<svg width="126" height="18" viewBox="0 0 126 18" fill="none" xmlns="http://www.w3.org/2000/svg">
<path d="M24.0206 0.43457H29.1015L36.315 12.3378H36.3631V0.43457H40.1016V17.564H35.2119L27.8059 5.37051H27.7578V17.564H24.0193V0.43457H24.0206Z" fill="black"/>
<path d="M24.0206 0.43457H29.1015L36.315 12.3378H36.3631V0.43457H40.1016V17.564H35.2119L27.8059 5.37051H27.7578V17.564H24.0193V0.43457H24.0206Z" fill="white"/>
<path d="M42.6077 0.43457H57.2512V3.91824H46.3461V7.1117H53.704V10.5954H46.3461V14.079H57.2335L57.2689 17.5627H42.6077V0.43457Z" fill="black"/>
<path d="M42.6077 0.43457H57.2512V3.91824H46.3461V7.1117H53.704V10.5954H46.3461V14.079H57.2335L57.2689 17.5627H42.6077V0.43457Z" fill="white"/>
<path d="M64.0342 8.61274L58.4265 0.436035H63.1236L66.743 6.43561L70.2181 0.436035H74.7481L69.2594 8.54115L75.3952 17.5654H70.6981L66.5518 10.6697L62.5259 17.5654H58.0922L64.0354 8.61402L64.0342 8.61274Z" fill="black"/>
<path d="M64.0342 8.61274L58.4265 0.436035H63.1236L66.743 6.43561L70.2181 0.436035H74.7481L69.2594 8.54115L75.3952 17.5654H70.6981L66.5518 10.6697L62.5259 17.5654H58.0922L64.0354 8.61402L64.0342 8.61274Z" fill="white"/>
<path d="M81.2624 3.77377H74.1565L76.4208 0.43457H89.8423V3.77377H85.0008V17.564H81.2624V3.77377Z" fill="black"/>
<path d="M81.2624 3.77377H74.1565L76.4208 0.43457H89.8423V3.77377H85.0008V17.564H81.2624V3.77377Z" fill="white"/>
<path d="M89.3904 9C89.3904 7.62954 89.6183 6.38693 90.073 5.27472C90.5289 4.16122 91.1634 3.21392 91.9777 2.43153C92.7932 1.64915 93.7595 1.0483 94.8778 0.628977C95.996 0.209659 97.2181 0 98.5453 0C99.8725 0 101.093 0.209659 102.212 0.628977C103.33 1.0483 104.296 1.64915 105.112 2.43153C105.926 3.21392 106.562 4.16122 107.016 5.27472C107.472 6.38693 107.699 7.62954 107.699 9C107.699 10.3705 107.471 11.6131 107.016 12.7253C106.56 13.8375 105.926 14.7861 105.112 15.5685C104.297 16.3509 103.33 16.9517 102.212 17.371C101.093 17.7903 99.8712 18 98.5453 18C97.2194 18 95.996 17.7903 94.8778 17.371C93.7595 16.9517 92.7932 16.3509 91.9777 15.5685C91.1634 14.7861 90.5276 13.8388 90.073 12.7253C89.6171 11.6118 89.3904 10.3705 89.3904 9ZM93.2732 9C93.2732 9.80667 93.3973 10.5443 93.6443 11.2142C93.8925 11.8841 94.2471 12.4645 94.7106 12.9567C95.1741 13.4489 95.7288 13.8324 96.3759 14.106C97.0231 14.3808 97.7462 14.5176 98.5453 14.5176C99.3444 14.5176 100.068 14.3808 100.715 14.106C101.362 13.8324 101.916 13.4489 102.38 12.9567C102.844 12.4645 103.198 11.8841 103.446 11.2142C103.695 10.5456 103.817 9.80667 103.817 9C103.817 8.19332 103.693 7.47614 103.446 6.79858C103.198 6.12102 102.844 5.53679 102.38 5.0446C101.916 4.55241 101.362 4.17017 100.715 3.89531C100.068 3.62173 99.3444 3.48366 98.5453 3.48366C97.7462 3.48366 97.0231 3.62045 96.3759 3.89531C95.7288 4.17017 95.1728 4.55241 94.7106 5.0446C94.2471 5.53679 93.8912 6.12102 93.6443 6.79858C93.396 7.47614 93.2732 8.20994 93.2732 9Z" fill="black"/>
<path d="M89.3904 9C89.3904 7.62954 89.6183 6.38693 90.073 5.27472C90.5289 4.16122 91.1634 3.21392 91.9777 2.43153C92.7932 1.64915 93.7595 1.0483 94.8778 0.628977C95.996 0.209659 97.2181 0 98.5453 0C99.8725 0 101.093 0.209659 102.212 0.628977C103.33 1.0483 104.296 1.64915 105.112 2.43153C105.926 3.21392 106.562 4.16122 107.016 5.27472C107.472 6.38693 107.699 7.62954 107.699 9C107.699 10.3705 107.471 11.6131 107.016 12.7253C106.56 13.8375 105.926 14.7861 105.112 15.5685C104.297 16.3509 103.33 16.9517 102.212 17.371C101.093 17.7903 99.8712 18 98.5453 18C97.2194 18 95.996 17.7903 94.8778 17.371C93.7595 16.9517 92.7932 16.3509 91.9777 15.5685C91.1634 14.7861 90.5276 13.8388 90.073 12.7253C89.6171 11.6118 89.3904 10.3705 89.3904 9ZM93.2732 9C93.2732 9.80667 93.3973 10.5443 93.6443 11.2142C93.8925 11.8841 94.2471 12.4645 94.7106 12.9567C95.1741 13.4489 95.7288 13.8324 96.3759 14.106C97.0231 14.3808 97.7462 14.5176 98.5453 14.5176C99.3444 14.5176 100.068 14.3808 100.715 14.106C101.362 13.8324 101.916 13.4489 102.38 12.9567C102.844 12.4645 103.198 11.8841 103.446 11.2142C103.695 10.5456 103.817 9.80667 103.817 9C103.817 8.19332 103.693 7.47614 103.446 6.79858C103.198 6.12102 102.844 5.53679 102.38 5.0446C101.916 4.55241 101.362 4.17017 100.715 3.89531C100.068 3.62173 99.3444 3.48366 98.5453 3.48366C97.7462 3.48366 97.0231 3.62045 96.3759 3.89531C95.7288 4.17017 95.1728 4.55241 94.7106 5.0446C94.2471 5.53679 93.8912 6.12102 93.6443 6.79858C93.396 7.47614 93.2732 8.20994 93.2732 9Z" fill="white"/>
<path d="M109.919 0.43457H115L122.213 12.3378H122.261V0.43457H126V17.564H121.11L113.704 5.37051H113.656V17.564H109.918V0.43457H109.919Z" fill="black"/>
<path d="M109.919 0.43457H115L122.213 12.3378H122.261V0.43457H126V17.564H121.11L113.704 5.37051H113.656V17.564H109.918V0.43457H109.919Z" fill="white"/>
<path d="M16.9589 14.1443C16.9589 15.7884 15.6342 17.1256 14.0056 17.1256C13.898 17.1256 13.7853 17.1192 13.6675 17.1051C12.9912 17.0297 12.3821 16.7357 11.9059 16.255L6.58949 10.8882L5.90943 10.2017V14.1456C5.90943 15.7896 4.58476 17.1268 2.95615 17.1268C1.32754 17.1268 0.00286961 15.7896 0.00286961 14.1456V3.12315C-0.0313236 2.32543 0.240956 1.56477 0.771584 0.98054L0.785514 0.965199L0.803244 0.946023L0.824773 0.923011C0.834904 0.912784 0.843769 0.902557 0.855167 0.891051H0.856433L0.862765 0.883381C1.42379 0.31321 2.16717 0 2.95488 0C3.81351 0 4.63035 0.380966 5.19517 1.04574L5.2053 1.05724L5.21543 1.06875L10.371 6.27315L10.3748 6.27699L10.3786 6.28082C10.3786 6.28082 10.3913 6.29233 10.3963 6.29744L10.4039 6.30511L10.4115 6.31278L10.7585 6.66307L10.7661 6.67074L10.7737 6.67841C11.6653 7.48381 12.8139 7.92741 14.0094 7.92741C15.0833 7.92741 16.118 7.5669 16.9576 6.91875V14.143L16.9589 14.1443ZM14.0107 6.05071C12.3605 6.05071 11.0181 4.6956 11.0181 3.02983C11.0181 1.36406 12.3605 0.00894882 14.0107 0.00894882C15.6608 0.00894882 17.0032 1.36406 17.0032 3.02983C17.0032 4.6956 15.6608 6.05071 14.0107 6.05071Z" fill="#1A73E8"/>
</svg>
